<svg xmlns="http://www.w3.org/2000/svg" viewBox="0 0 400 400"><defs><style>.cls-1{fill:#f9ac2f;}.cls-2{fill:#fff;}.cls-3{fill:#5f4b8b;}.cls-4{fill:#806ece;}</style></defs><title>Databyrd Sara Favicon</title><g id="Layer_2" data-name="Layer 2"><g id="Sara_Fav" data-name="Sara Fav"><rect class="cls-1" width="400" height="400" rx="49.23"/><path class="cls-2" d="M322.5,366.5H77.5a44.05,44.05,0,0,1-44-44V77.5a44.05,44.05,0,0,1,44-44h245a44.05,44.05,0,0,1,44,44v245A44.05,44.05,0,0,1,322.5,366.5Zm-245-325a36,36,0,0,0-36,36v245a36,36,0,0,0,36,36h245a36,36,0,0,0,36-36V77.5a36,36,0,0,0-36-36Z"/><ellipse class="cls-2" cx="237.35" cy="198.5" rx="14.64" ry="14.5"/><ellipse class="cls-2" cx="171.65" cy="198.5" rx="14.65" ry="14.5"/><path class="cls-3" d="M200,337.5l37.16-91.81a7.29,7.29,0,0,0-6.75-10L200,257.48l-30.41-21.82a7.29,7.29,0,0,0-6.75,10Z"/><path class="cls-4" d="M231.52,235.66s-24.25-12.12-63,0L200,257.48Z"/><path class="cls-4" d="M232.59,165.31a28,28,0,1,0,28,28A28,28,0,0,0,232.59,165.31Zm4.85,45a12.12,12.12,0,1,1,12.12-12.12A12.12,12.12,0,0,1,237.44,210.31Z"/><path class="cls-4" d="M167.41,165.31a28,28,0,1,0,28,28A28,28,0,0,0,167.41,165.31Zm4.85,45a12.12,12.12,0,1,1,12.13-12.12A12.12,12.12,0,0,1,172.26,210.31Z"/><path class="cls-3" d="M201.5,160a21.53,21.53,0,0,1-6.7-3.64,33.05,33.05,0,0,1-5.56-5.47,40,40,0,0,1-7.07-14.25,48.81,48.81,0,0,1-1.43-15.94A60,60,0,0,1,184,105.36a72.15,72.15,0,0,1,6.49-13.71c1.35-2.08,2.69-4.19,4.19-6.14s3-3.91,4.71-5.66c6.66-7.16,14.25-13.27,23.43-17.35-3.13,9.56-7.15,17.75-10.74,25.84-.47,1-.94,2-1.35,3l-1.34,3c-.9,2-1.67,4-2.58,5.86-1.55,3.91-3.22,7.72-4.49,11.55A107.64,107.64,0,0,0,199,123.14a74.37,74.37,0,0,0-1.69,11.53A56.86,56.86,0,0,0,201.5,160Z"/><path class="cls-4" d="M200.38,157a56.72,56.72,0,0,1-3.12-22.3A74.37,74.37,0,0,1,199,123.14a107.64,107.64,0,0,1,3.34-11.42c1.27-3.83,2.94-7.64,4.49-11.55.91-1.91,1.68-3.9,2.58-5.86l1.34-3c.41-1,.88-2,1.35-3,3.59-8.09,7.61-16.28,10.74-25.84l0,0C220.87,63.93,174.26,99.49,200.38,157Z"/></g></g></svg>