<svg xmlns="http://www.w3.org/2000/svg" viewBox="0 0 227.9 228.02"><defs><style>.cls-1{fill:#37214f;fill-rule:evenodd;}</style></defs><title>M Logo solo</title><g id="Layer_2" data-name="Layer 2"><g id="Layer_1-2" data-name="Layer 1"><path class="cls-1" d="M7.77,73s36.15-16.78,65.83-28C96,36.62,115,32.69,110.22,33.94c20.42-5.41,22.26-3.08,21.81,1.24-.21,2-7.85,18.41-34.15,48.14-33,37.34-79.81,88.11-80.65,88.05-.25,0-9.46-12.81-14.4-33.74C-5.7,101.49,7.77,73,7.77,73Z"/><path class="cls-1" d="M9.41,70.15s119-65,144.42-47.73c9.38,6.38-3.79,23.46-23.45,46.09-35.55,40.91-96,95.65-107.8,109.44C19,182.12,162.42,56.22,189.63,71c9.1,4.94-8.7,25-28.39,48.56-25.18,30.08-56,63.77-56,63.77s108.43-75.53,117.27-79.82c4.94-2.4,3.88-3.59,3.7-8.44-.54-14.53-11.93-43.4-38.26-67.27C153.63-3.42,97.47-11.32,50.15,19.54,15.5,42.14,9.41,70.15,9.41,70.15Z"/><path class="cls-1" d="M26.69,185s27.8-20.08,39.66-29.22c7.2-5.54,82.82-58.88,85.43-60.48,4.88-3,21-12.75,21-12.75S131.42,131.73,94.17,173C72,197.62,62,212.45,61.67,213.75c-.15.66-11.73-6.27-18.93-11.93s-15.63-16-15.63-16Z"/><path class="cls-1" d="M205.27,123.64s-25.66,17.56-53.9,37.86c-32.1,23.06-67.32,47.19-67.89,47.72-1.09,1-12.76,9.47-12.76,9.47s24.9,11.23,52.67,9.05,64.68-21.68,72-32.92c1.67-2.55-42.11,23.67-53.08,14.82-9-7.3,6.57-23.7,27.57-46.09C180,152.73,205.27,123.64,205.27,123.64Z"/><path class="cls-1" d="M227.9,115s-9.47,14.2-18.52,25.1-49.63,51-49.37,58.43c.13,3.9,6.48,3.91,10.28,3.29s18.93-6.38,28.39-12.35c2.52-.86,17.82-21.37,22.63-37C228.1,136,227.9,115,227.9,115Z"/></g></g></svg>